<svg width="71" height="71" viewBox="0 0 71 71" fill="none" xmlns="http://www.w3.org/2000/svg">
<g filter="url(#filter0_d_23_752)">
<circle cx="6" cy="2" r="2" fill="#ABB2BF"/>
<circle cx="20.75" cy="2" r="2" fill="#ABB2BF"/>
<circle cx="35.5" cy="2" r="2" fill="#ABB2BF"/>
<circle cx="50.25" cy="2" r="2" fill="#ABB2BF"/>
<circle cx="65" cy="2" r="2" fill="#ABB2BF"/>
<circle cx="6" cy="16.75" r="2" fill="#ABB2BF"/>
<circle cx="20.75" cy="16.75" r="2" fill="#ABB2BF"/>
<circle cx="35.5" cy="16.75" r="2" fill="#ABB2BF"/>
<circle cx="50.25" cy="16.75" r="2" fill="#ABB2BF"/>
<circle cx="65" cy="16.75" r="2" fill="#ABB2BF"/>
<circle cx="6" cy="31.5" r="2" fill="#ABB2BF"/>
<circle cx="20.75" cy="31.5" r="2" fill="#ABB2BF"/>
<circle cx="35.5" cy="31.5" r="2" fill="#ABB2BF"/>
<circle cx="50.25" cy="31.5" r="2" fill="#ABB2BF"/>
<circle cx="65" cy="31.5" r="2" fill="#ABB2BF"/>
<circle cx="6" cy="46.25" r="2" fill="#ABB2BF"/>
<circle cx="20.75" cy="46.25" r="2" fill="#ABB2BF"/>
<circle cx="35.5" cy="46.25" r="2" fill="#ABB2BF"/>
<circle cx="50.25" cy="46.25" r="2" fill="#ABB2BF"/>
<circle cx="65" cy="46.25" r="2" fill="#ABB2BF"/>
<circle cx="6" cy="61" r="2" fill="#ABB2BF"/>
<circle cx="20.75" cy="61" r="2" fill="#ABB2BF"/>
<circle cx="35.5" cy="61" r="2" fill="#ABB2BF"/>
<circle cx="50.25" cy="61" r="2" fill="#ABB2BF"/>
<circle cx="65" cy="61" r="2" fill="#ABB2BF"/>
</g>
<defs>
<filter id="filter0_d_23_752" x="0" y="0" width="71" height="71" filterUnits="userSpaceOnUse" color-interpolation-filters="sRGB">
<feFlood flood-opacity="0" result="BackgroundImageFix"/>
<feColorMatrix in="SourceAlpha" type="matrix" values="0 0 0 0 0 0 0 0 0 0 0 0 0 0 0 0 0 0 127 0" result="hardAlpha"/>
<feOffset dy="4"/>
<feGaussianBlur stdDeviation="2"/>
<feComposite in2="hardAlpha" operator="out"/>
<feColorMatrix type="matrix" values="0 0 0 0 0 0 0 0 0 0 0 0 0 0 0 0 0 0 0.25 0"/>
<feBlend mode="normal" in2="BackgroundImageFix" result="effect1_dropShadow_23_752"/>
<feBlend mode="normal" in="SourceGraphic" in2="effect1_dropShadow_23_752" result="shape"/>
</filter>
</defs>
</svg>
